P2
5 5
255
0 0 0 0 0
20 20 20 20 20
100 132 164 164 180
255 255 255 255 255
255 255 255 255 255
